# xmcd
#
# Track frame offsets:
#	150
#	13960
#	25347
#	41875
#	60545
#	75287
#	92979
#	103984
#	121677
#	136774
#	152534
#	167984
#	183042
#	195342
#	209499
#	226004
#	241012
#	258232
#	273304
#	284714
#	298409
#	313179
#
# Disc length: 4389 seconds
#
# Revision: 3
# Processed by: cddbd v1.5.2PL0 Copyright (c) Steve Scherf et al.
# Submitted via: audiograbber 1.83.01
#
DISCID=35112316
DTITLE=Various Artist - The Country Gold Collection 1987- 1989
DYEAR=2000
DGENRE=Country
TTITLE0=Clint Black - Better man
TTITLE1=Highway 101 - Cry, cry, cry
TTITLE2=Randy Travis - I Told You So 
TTITLE3=K.T. Oslin - I'll Always Come Back 
TTITLE4=Keith Whitley - I Wonder Do You Think of Me 
TTITLE5=Hank Williams Jr. and Hank Williams Sr. - There's a Tear in My Beer 
TTITLE6=Joe Vern Gosdin - Set 'Em Up 
TTITLE7=Restless Heart - Bluest Eyes in Texas 
TTITLE8=Rosanne Cash - If You Change Your Mind 
TTITLE9=Reba McEntire - What Am I Gonna Do about You 
TTITLE10=Merle Haggard - Twinkle, Twinkle Lucky Star 
TTITLE11=Nitty Gritty Dirt Band - Fishin' in the Dark 
TTITLE12=Tanya Tucker - Strong Enough to Bend 
TTITLE13=George Strait - Ocean Front Property 
TTITLE14=The Judds - Cry Myself to Sleep 
TTITLE15=Ricky Van Shelton - Somebody Lied 
TTITLE16=Eddy Raven - Joe Knows how to Live 
TTITLE17=Eddie Rabbitt - The Wanderer 
TTITLE18=Patty Loveless - Timber, I'm Falling in Love 
TTITLE19=Alabama - High Cotton 
TTITLE20=Ronnie Milsap - A Woman in Love 
TTITLE21=Earl Thomas Conley and Emmylou Harris - We Believe in Happy Endings 
EXTD=
EXTT0=
EXTT1=
EXTT2=
EXTT3=
EXTT4=
EXTT5=
EXTT6=
EXTT7=
EXTT8=
EXTT9=
EXTT10=
EXTT11=
EXTT12=
EXTT13=
EXTT14=
EXTT15=
EXTT16=
EXTT17=
EXTT18=
EXTT19=
EXTT20=
EXTT21=
PLAYORDER=
